# Blender v2.91.2 OBJ File: 'The Keep.blend'
# www.blender.org
mtllib TheKeepTorchRight.mtl
o Torches.001_Cube.004
v -66.518509 215.452499 -381.618927
v -67.504623 215.452499 -389.109222
v -68.457138 206.262390 -388.853973
v -71.249763 195.321136 -388.105682
v -75.692192 184.769669 -386.915314
v -81.481674 176.433075 -385.364044
v -88.223656 171.603928 -383.557526
v -70.395767 215.452499 -396.089020
v -71.249763 206.262390 -395.595978
v -73.753555 195.321136 -394.150421
v -77.736534 184.769669 -391.850861
v -82.927238 176.433090 -388.853973
v -88.971939 171.603928 -385.364044
v -74.994904 215.452499 -402.082672
v -75.692192 206.262390 -401.385468
v -77.736534 195.321121 -399.341095
v -80.988617 184.769669 -396.089020
v -85.226807 176.433090 -391.850861
v -90.162285 171.603943 -386.915314
v -80.988617 215.452499 -406.681854
v -81.481674 206.262390 -405.827850
v -82.927238 195.321136 -403.324066
v -85.226807 184.769669 -399.341095
v -88.223663 176.433075 -394.150421
v -91.713577 171.603943 -388.105682
v -87.968437 215.452499 -409.572968
v -88.223663 206.262390 -408.620514
v -88.971947 195.321121 -405.827850
v -90.162292 184.769669 -401.385468
v -91.713577 176.433075 -395.595978
v -93.520088 171.603928 -388.853973
v -95.458717 215.452499 -410.559113
v -95.458710 206.262390 -409.572968
v -95.458717 195.321136 -406.681854
v -95.458717 184.769669 -402.082672
v -95.458717 176.433075 -396.089020
v -95.458710 171.603928 -389.109222
v -102.948982 215.452499 -409.572968
v -102.693756 206.262390 -408.620514
v -101.945480 195.321121 -405.827850
v -100.755135 184.769669 -401.385468
v -99.203842 176.433075 -395.595978
v -97.397331 171.603928 -388.853973
v -109.928810 215.452499 -406.681854
v -109.435753 206.262390 -405.827850
v -107.990189 195.321136 -403.324066
v -105.690613 184.769669 -399.341095
v -102.693756 176.433075 -394.150421
v -99.203842 171.603928 -388.105682
v -115.922523 215.452499 -402.082672
v -115.225235 206.262390 -401.385468
v -113.180893 195.321121 -399.341095
v -109.928810 184.769669 -396.089020
v -105.690613 176.433075 -391.850861
v -100.755135 171.603928 -386.915314
v -120.521652 215.452499 -396.089020
v -119.667656 206.262390 -395.595978
v -117.163864 195.321136 -394.150421
v -113.180893 184.769669 -391.850861
v -107.990181 176.433075 -388.853973
v -101.945480 171.603928 -385.364044
v -123.412796 215.452499 -389.109222
v -122.460274 206.262390 -388.853973
v -119.667664 195.321121 -388.105682
v -115.225235 184.769653 -386.915314
v -109.435753 176.433075 -385.364044
v -102.693756 171.603928 -383.557526
v -124.398911 215.452499 -381.618927
v -123.412788 206.262390 -381.618927
v -120.521660 195.321121 -381.618927
v -115.922516 184.769669 -381.618927
v -109.928810 176.433075 -381.618927
v -102.948982 171.603928 -381.618927
v -123.412796 215.452499 -374.128632
v -122.460274 206.262390 -374.383881
v -119.667664 195.321121 -375.132172
v -115.225235 184.769653 -376.322540
v -109.435753 176.433075 -377.873810
v -102.693756 171.603928 -379.680267
v -120.521652 215.452499 -367.148834
v -119.667656 206.262390 -367.641876
v -117.163857 195.321136 -369.087433
v -113.180893 184.769669 -371.386993
v -107.990181 176.433075 -374.383881
v -101.945473 171.603928 -377.873810
v -115.922516 215.452499 -361.155121
v -115.225235 206.262375 -361.852448
v -113.180893 195.321121 -363.896759
v -109.928810 184.769669 -367.148834
v -105.690620 176.433075 -371.386993
v -100.755135 171.603928 -376.322540
v -109.928810 215.452499 -356.555939
v -109.435753 206.262390 -357.409943
v -107.990181 195.321121 -359.913788
v -105.690620 184.769669 -363.896759
v -102.693756 176.433075 -369.087494
v -99.203842 171.603928 -375.132172
v -95.458710 170.462173 -381.618927
v -102.948982 215.452499 -353.664825
v -102.693756 206.262390 -354.617340
v -101.945480 195.321136 -357.409943
v -100.755142 184.769669 -361.852448
v -99.203842 176.433075 -367.641876
v -97.397331 171.603928 -374.383881
v -95.458710 215.452499 -352.678741
v -95.458717 206.262390 -353.664825
v -95.458710 195.321136 -356.555939
v -95.458717 184.769669 -361.155121
v -95.458717 176.433075 -367.148834
v -95.458710 171.603928 -374.128632
v -87.968437 215.452499 -353.664825
v -88.223663 206.262390 -354.617340
v -88.971939 195.321121 -357.409943
v -90.162292 184.769669 -361.852448
v -91.713577 176.433075 -367.641876
v -93.520088 171.603928 -374.383881
v -80.988617 215.452499 -356.555939
v -81.481682 206.262390 -357.409943
v -82.927231 195.321136 -359.913788
v -85.226807 184.769669 -363.896759
v -88.223663 176.433075 -369.087494
v -91.713577 171.603928 -375.132172
v -74.994904 215.452499 -361.155121
v -75.692200 206.262390 -361.852448
v -77.736526 195.321136 -363.896759
v -80.988617 184.769669 -367.148834
v -85.226807 176.433090 -371.386993
v -90.162292 171.603943 -376.322540
v -70.395767 215.452499 -367.148834
v -71.249771 206.262390 -367.641876
v -73.753555 195.321136 -369.087494
v -77.736534 184.769669 -371.386993
v -82.927238 176.433090 -374.383881
v -88.971947 171.603928 -377.873810
v -67.504631 215.452499 -374.128632
v -68.457146 206.262390 -374.383881
v -71.249756 195.321136 -375.132172
v -75.692192 184.769669 -376.322479
v -81.481674 176.433075 -377.873810
v -88.223663 171.603928 -379.680267
v -67.504639 206.262390 -381.618927
v -70.395767 195.321136 -381.618927
v -74.994904 184.769669 -381.618927
v -80.988617 176.433075 -381.618927
v -87.968437 171.603943 -381.618927
vt 0.708333 0.640215
vt 0.750000 0.723548
vt 0.750000 0.640215
vt 0.708333 0.306881
vt 0.750000 0.390215
vt 0.750000 0.306881
vt 0.750000 0.556881
vt 0.729167 0.223548
vt 0.708333 0.473548
vt 0.750000 0.473548
vt 0.708333 0.390215
vt 0.687500 0.223548
vt 0.666667 0.306881
vt 0.666667 0.473548
vt 0.708333 0.556881
vt 0.666667 0.390215
vt 0.666667 0.640215
vt 0.708333 0.723548
vt 0.666667 0.556881
vt 0.625000 0.306881
vt 0.625000 0.640215
vt 0.645834 0.223548
vt 0.625000 0.473548
vt 0.625000 0.723548
vt 0.666667 0.723548
vt 0.583333 0.390215
vt 0.625000 0.390215
vt 0.583333 0.723548
vt 0.625000 0.556881
vt 0.583333 0.640215
vt 0.604167 0.223548
vt 0.583334 0.306881
vt 0.583333 0.473548
vt 0.562500 0.223548
vt 0.541667 0.306881
vt 0.541667 0.556881
vt 0.583333 0.556881
vt 0.541667 0.473548
vt 0.541667 0.723548
vt 0.541667 0.640215
vt 0.500000 0.723548
vt 0.500000 0.306881
vt 0.541667 0.390215
vt 0.500000 0.640215
vt 0.520834 0.223548
vt 0.500000 0.473548
vt 0.458333 0.390214
vt 0.500000 0.390215
vt 0.458333 0.640215
vt 0.458334 0.306881
vt 0.500000 0.556881
vt 0.479167 0.223548
vt 0.458333 0.473548
vt 0.416667 0.556881
vt 0.458333 0.556881
vt 0.437500 0.223548
vt 0.416667 0.306881
vt 0.416667 0.473548
vt 0.416667 0.390214
vt 0.416667 0.640215
vt 0.458333 0.723548
vt 0.375000 0.640215
vt 0.416667 0.723548
vt 0.375000 0.306881
vt 0.395834 0.223548
vt 0.375000 0.556881
vt 0.375000 0.390214
vt 0.333333 0.473548
vt 0.375000 0.473548
vt 0.333333 0.390214
vt 0.333333 0.640214
vt 0.375000 0.723548
vt 0.333333 0.556881
vt 0.354167 0.223548
vt 0.333333 0.306881
vt 0.291667 0.640214
vt 0.312500 0.223548
vt 0.291667 0.306881
vt 0.291667 0.556881
vt 0.291667 0.473548
vt 0.291667 0.723548
vt 0.333333 0.723548
vt 0.291667 0.390214
vt 0.250000 0.390214
vt 0.250000 0.640214
vt 0.250000 0.556881
vt 0.270833 0.223548
vt 0.250000 0.306881
vt 0.208333 0.473548
vt 0.250000 0.473548
vt 0.208333 0.640214
vt 0.250000 0.723548
vt 0.208333 0.306881
vt 0.208333 0.556881
vt 0.229167 0.223548
vt 0.166667 0.390214
vt 0.208333 0.390214
vt 0.166667 0.556881
vt 0.187500 0.223548
vt 0.166667 0.306881
vt 0.166667 0.473548
vt 0.166667 0.723548
vt 0.208333 0.723548
vt 0.125000 0.390214
vt 0.166667 0.640214
vt 0.125000 0.723548
vt 0.125000 0.640214
vt 0.145833 0.223548
vt 0.125000 0.306881
vt 0.125000 0.556881
vt 0.104166 0.223548
vt 0.083333 0.306881
vt 0.125000 0.473548
vt 0.083333 0.556881
vt 0.083333 0.473548
vt 0.083333 0.640214
vt 0.083333 0.390214
vt 0.041666 0.306881
vt 0.041667 0.556881
vt 0.062500 0.223548
vt 0.041667 0.473548
vt 0.041667 0.390215
vt 0.041667 0.723548
vt 0.083333 0.723548
vt 0.000000 0.390215
vt 0.000000 0.640215
vt 0.041667 0.640214
vt 0.000000 0.306881
vt 0.000000 0.556881
vt 0.020833 0.223548
vt 0.000000 0.473548
vt 0.979166 0.223548
vt 0.958333 0.306881
vt 1.000000 0.306881
vt 1.000000 0.473548
vt 0.958333 0.556881
vt 1.000000 0.556881
vt 1.000000 0.390215
vt 0.958333 0.473548
vt 0.958333 0.640215
vt 1.000000 0.723548
vt 1.000000 0.640215
vt 0.958333 0.390215
vt 0.916667 0.390215
vt 0.916667 0.640215
vt 0.937500 0.223548
vt 0.916666 0.306881
vt 0.916667 0.473548
vt 0.958333 0.723548
vt 0.875000 0.390215
vt 0.875000 0.723548
vt 0.916667 0.723548
vt 0.875000 0.306881
vt 0.916667 0.556881
vt 0.875000 0.640215
vt 0.895833 0.223548
vt 0.875000 0.473548
vt 0.854166 0.223548
vt 0.833333 0.306881
vt 0.833333 0.473548
vt 0.875000 0.556881
vt 0.833333 0.723548
vt 0.833333 0.390215
vt 0.833333 0.640215
vt 0.791667 0.640215
vt 0.791667 0.306881
vt 0.791667 0.556881
vt 0.833333 0.556881
vt 0.812500 0.223548
vt 0.791667 0.473548
vt 0.791667 0.390215
vt 0.791667 0.723548
vt 0.770833 0.223548
vt 0.000000 0.723548
vn 0.9859 -0.1058 -0.1298
vn 0.5674 -0.8201 -0.0747
vn 0.9591 -0.2534 -0.1263
vn 0.1507 -0.9884 -0.0198
vn 0.9101 -0.3967 -0.1198
vn 0.8073 -0.5804 -0.1063
vn 0.1404 -0.9884 -0.0582
vn 0.8481 -0.3967 -0.3513
vn 0.7523 -0.5804 -0.3116
vn 0.9187 -0.1058 -0.3805
vn 0.5287 -0.8201 -0.2190
vn 0.8937 -0.2534 -0.3702
vn 0.4540 -0.8201 -0.3484
vn 0.7675 -0.2534 -0.5889
vn 0.1206 -0.9884 -0.0925
vn 0.7283 -0.3967 -0.5588
vn 0.6460 -0.5804 -0.4957
vn 0.7889 -0.1058 -0.6053
vn 0.4957 -0.5804 -0.6460
vn 0.6054 -0.1058 -0.7889
vn 0.3484 -0.8201 -0.4540
vn 0.5889 -0.2534 -0.7675
vn 0.0925 -0.9884 -0.1206
vn 0.5588 -0.3967 -0.7283
vn 0.0582 -0.9884 -0.1404
vn 0.3513 -0.3967 -0.8481
vn 0.3116 -0.5804 -0.7523
vn 0.3805 -0.1058 -0.9187
vn 0.2190 -0.8201 -0.5287
vn 0.3702 -0.2534 -0.8937
vn 0.1298 -0.1058 -0.9859
vn 0.0747 -0.8201 -0.5674
vn 0.1263 -0.2534 -0.9591
vn 0.0198 -0.9884 -0.1507
vn 0.1198 -0.3967 -0.9101
vn 0.1063 -0.5804 -0.8073
vn -0.1063 -0.5804 -0.8073
vn -0.1298 -0.1058 -0.9859
vn -0.0747 -0.8201 -0.5674
vn -0.1263 -0.2534 -0.9591
vn -0.0198 -0.9884 -0.1507
vn -0.1198 -0.3967 -0.9101
vn -0.3702 -0.2534 -0.8937
vn -0.0582 -0.9884 -0.1404
vn -0.3513 -0.3967 -0.8481
vn -0.3116 -0.5804 -0.7523
vn -0.3805 -0.1058 -0.9187
vn -0.2190 -0.8201 -0.5287
vn -0.6053 -0.1058 -0.7889
vn -0.3484 -0.8201 -0.4540
vn -0.5889 -0.2534 -0.7675
vn -0.0925 -0.9884 -0.1206
vn -0.5588 -0.3967 -0.7283
vn -0.4957 -0.5804 -0.6460
vn -0.7283 -0.3967 -0.5588
vn -0.6460 -0.5804 -0.4957
vn -0.7889 -0.1058 -0.6053
vn -0.4540 -0.8201 -0.3484
vn -0.7675 -0.2534 -0.5889
vn -0.1206 -0.9884 -0.0925
vn -0.8937 -0.2534 -0.3702
vn -0.1404 -0.9884 -0.0582
vn -0.8481 -0.3967 -0.3513
vn -0.7523 -0.5804 -0.3116
vn -0.9187 -0.1058 -0.3805
vn -0.5287 -0.8201 -0.2190
vn -0.8073 -0.5804 -0.1063
vn -0.9859 -0.1058 -0.1298
vn -0.5674 -0.8201 -0.0747
vn -0.9591 -0.2534 -0.1263
vn -0.1507 -0.9884 -0.0198
vn -0.9101 -0.3967 -0.1198
vn -0.9101 -0.3967 0.1198
vn -0.8073 -0.5804 0.1063
vn -0.9859 -0.1058 0.1298
vn -0.5674 -0.8201 0.0747
vn -0.9591 -0.2534 0.1263
vn -0.1507 -0.9884 0.0198
vn -0.5287 -0.8201 0.2190
vn -0.8937 -0.2534 0.3702
vn -0.1404 -0.9884 0.0582
vn -0.8481 -0.3967 0.3513
vn -0.7523 -0.5804 0.3116
vn -0.9187 -0.1058 0.3805
vn -0.6460 -0.5804 0.4957
vn -0.7889 -0.1058 0.6053
vn -0.4540 -0.8201 0.3484
vn -0.7675 -0.2534 0.5889
vn -0.1206 -0.9884 0.0925
vn -0.7283 -0.3967 0.5588
vn -0.0925 -0.9884 0.1206
vn -0.5588 -0.3967 0.7283
vn -0.4957 -0.5804 0.6460
vn -0.6054 -0.1058 0.7889
vn -0.3484 -0.8201 0.4540
vn -0.5889 -0.2534 0.7675
vn -0.2190 -0.8201 0.5287
vn -0.3702 -0.2534 0.8937
vn -0.0582 -0.9884 0.1404
vn -0.3513 -0.3967 0.8481
vn -0.3116 -0.5804 0.7523
vn -0.3805 -0.1058 0.9187
vn -0.1063 -0.5804 0.8073
vn -0.1298 -0.1058 0.9859
vn -0.0747 -0.8201 0.5674
vn -0.1263 -0.2534 0.9591
vn -0.0198 -0.9884 0.1507
vn -0.1198 -0.3967 0.9101
vn 0.0198 -0.9884 0.1507
vn 0.1198 -0.3967 0.9101
vn 0.1063 -0.5804 0.8073
vn 0.1298 -0.1058 0.9859
vn 0.0747 -0.8201 0.5674
vn 0.1263 -0.2534 0.9591
vn 0.2190 -0.8201 0.5287
vn 0.3702 -0.2534 0.8937
vn 0.0582 -0.9884 0.1404
vn 0.3513 -0.3967 0.8481
vn 0.3116 -0.5804 0.7523
vn 0.3805 -0.1058 0.9187
vn 0.4957 -0.5804 0.6460
vn 0.6054 -0.1058 0.7889
vn 0.3484 -0.8201 0.4540
vn 0.5889 -0.2534 0.7675
vn 0.0925 -0.9884 0.1206
vn 0.5588 -0.3967 0.7283
vn 0.1206 -0.9884 0.0925
vn 0.7283 -0.3967 0.5588
vn 0.6460 -0.5804 0.4957
vn 0.7889 -0.1058 0.6053
vn 0.4540 -0.8201 0.3484
vn 0.7675 -0.2534 0.5889
vn 0.9187 -0.1058 0.3805
vn 0.5287 -0.8201 0.2190
vn 0.8937 -0.2534 0.3702
vn 0.1404 -0.9884 0.0582
vn 0.8481 -0.3967 0.3513
vn 0.7523 -0.5804 0.3116
vn 0.8073 -0.5804 0.1063
vn 0.9859 -0.1058 0.1298
vn 0.5674 -0.8201 0.0747
vn 0.9591 -0.2534 0.1263
vn 0.1507 -0.9884 0.0198
vn 0.9101 -0.3967 0.1198
vn 0.6053 -0.1058 -0.7889
vn -0.6054 -0.1058 -0.7889
usemtl Torch
s off
f 3/1/1 1/2/1 141/3/1
f 7/4/2 144/5/2 145/6/2
f 142/7/3 3/1/3 141/3/3
f 98/8/4 7/4/4 145/6/4
f 5/9/5 142/7/5 143/10/5
f 6/11/6 143/10/6 144/5/6
f 98/12/7 13/13/7 7/4/7
f 11/14/8 4/15/8 5/9/8
f 12/16/9 5/9/9 6/11/9
f 9/17/10 2/18/10 3/1/10
f 13/13/11 6/11/11 7/4/11
f 10/19/12 3/1/12 4/15/12
f 19/20/13 12/16/13 13/13/13
f 10/19/14 15/21/14 9/17/14
f 98/22/15 19/20/15 13/13/15
f 17/23/16 10/19/16 11/14/16
f 12/16/17 17/23/17 11/14/17
f 9/17/18 14/24/18 8/25/18
f 24/26/19 17/23/19 18/27/19
f 15/21/20 20/28/20 14/24/20
f 19/20/21 24/26/21 18/27/21
f 16/29/22 21/30/22 15/21/22
f 98/31/23 25/32/23 19/20/23
f 23/33/24 16/29/24 17/23/24
f 98/34/25 31/35/25 25/32/25
f 23/33/26 28/36/26 22/37/26
f 24/26/27 29/38/27 23/33/27
f 21/30/28 26/39/28 20/28/28
f 31/35/29 24/26/29 25/32/29
f 22/37/30 27/40/30 21/30/30
f 27/40/31 32/41/31 26/39/31
f 37/42/32 30/43/32 31/35/32
f 28/36/33 33/44/33 27/40/33
f 98/45/34 37/42/34 31/35/34
f 35/46/35 28/36/35 29/38/35
f 30/43/36 35/46/36 29/38/36
f 42/47/37 35/46/37 36/48/37
f 39/49/38 32/41/38 33/44/38
f 43/50/39 36/48/39 37/42/39
f 34/51/40 39/49/40 33/44/40
f 98/52/41 43/50/41 37/42/41
f 41/53/42 34/51/42 35/46/42
f 46/54/43 39/49/43 40/55/43
f 98/56/44 49/57/44 43/50/44
f 47/58/45 40/55/45 41/53/45
f 48/59/46 41/53/46 42/47/46
f 45/60/47 38/61/47 39/49/47
f 43/50/48 48/59/48 42/47/48
f 51/62/49 44/63/49 45/60/49
f 55/64/50 48/59/50 49/57/50
f 46/54/51 51/62/51 45/60/51
f 98/65/52 55/64/52 49/57/52
f 47/58/53 52/66/53 46/54/53
f 54/67/54 47/58/54 48/59/54
f 59/68/55 52/66/55 53/69/55
f 60/70/56 53/69/56 54/67/56
f 57/71/57 50/72/57 51/62/57
f 55/64/58 60/70/58 54/67/58
f 58/73/59 51/62/59 52/66/59
f 98/74/60 61/75/60 55/64/60
f 58/73/61 63/76/61 57/71/61
f 98/77/62 67/78/62 61/75/62
f 59/68/63 64/79/63 58/73/63
f 60/70/64 65/80/64 59/68/64
f 57/71/65 62/81/65 56/82/65
f 61/75/66 66/83/66 60/70/66
f 72/84/67 65/80/67 66/83/67
f 69/85/68 62/81/68 63/76/68
f 67/78/69 72/84/69 66/83/69
f 70/86/70 63/76/70 64/79/70
f 98/87/71 73/88/71 67/78/71
f 65/80/72 70/86/72 64/79/72
f 77/89/73 70/86/73 71/90/73
f 72/84/74 77/89/74 71/90/74
f 75/91/75 68/92/75 69/85/75
f 79/93/76 72/84/76 73/88/76
f 76/94/77 69/85/77 70/86/77
f 98/95/78 79/93/78 73/88/78
f 79/93/79 84/96/79 78/97/79
f 82/98/80 75/91/80 76/94/80
f 98/99/81 85/100/81 79/93/81
f 83/101/82 76/94/82 77/89/82
f 84/96/83 77/89/83 78/97/83
f 75/91/84 80/102/84 74/103/84
f 90/104/85 83/101/85 84/96/85
f 81/105/86 86/106/86 80/102/86
f 85/100/87 90/104/87 84/96/87
f 82/98/88 87/107/88 81/105/88
f 98/108/89 91/109/89 85/100/89
f 83/101/90 88/110/90 82/98/90
f 98/111/91 97/112/91 91/109/91
f 89/113/92 94/114/92 88/110/92
f 90/104/93 95/115/93 89/113/93
f 93/116/94 86/106/94 87/107/94
f 91/109/95 96/117/95 90/104/95
f 88/110/96 93/116/96 87/107/96
f 104/118/97 96/117/97 97/112/97
f 101/119/98 93/116/98 94/114/98
f 98/120/99 104/118/99 97/112/99
f 102/121/100 94/114/100 95/115/100
f 103/122/101 95/115/101 96/117/101
f 93/116/102 99/123/102 92/124/102
f 109/125/103 102/121/103 103/122/103
f 106/126/104 99/123/104 100/127/104
f 110/128/105 103/122/105 104/118/105
f 107/129/106 100/127/106 101/119/106
f 98/130/107 110/128/107 104/118/107
f 108/131/108 101/119/108 102/121/108
f 98/132/109 116/133/109 110/134/109
f 108/135/110 113/136/110 107/137/110
f 109/138/111 114/139/111 108/135/111
f 112/140/112 105/141/112 106/142/112
f 110/134/113 115/143/113 109/138/113
f 107/137/114 112/140/114 106/142/114
f 116/133/115 121/144/115 115/143/115
f 113/136/116 118/145/116 112/140/116
f 98/146/117 122/147/117 116/133/117
f 120/148/118 113/136/118 114/139/118
f 121/144/119 114/139/119 115/143/119
f 118/145/120 111/149/120 112/140/120
f 127/150/121 120/148/121 121/144/121
f 118/145/122 123/151/122 117/152/122
f 128/153/123 121/144/123 122/147/123
f 119/154/124 124/155/124 118/145/124
f 98/156/125 128/153/125 122/147/125
f 126/157/126 119/154/126 120/148/126
f 98/158/127 134/159/127 128/153/127
f 132/160/128 125/161/128 126/157/128
f 127/150/129 132/160/129 126/157/129
f 124/155/130 129/162/130 123/151/130
f 128/153/131 133/163/131 127/150/131
f 125/161/132 130/164/132 124/155/132
f 136/165/133 129/162/133 130/164/133
f 140/166/134 133/163/134 134/159/134
f 137/167/135 130/164/135 131/168/135
f 98/169/136 140/166/136 134/159/136
f 138/170/137 131/168/137 132/160/137
f 133/163/138 138/170/138 132/160/138
f 139/171/139 143/10/139 138/170/139
f 141/3/140 135/172/140 136/165/140
f 145/6/141 139/171/141 140/166/141
f 142/7/142 136/165/142 137/167/142
f 98/173/143 145/6/143 140/166/143
f 143/10/144 137/167/144 138/170/144
f 3/1/1 2/18/1 1/2/1
f 7/4/2 6/11/2 144/5/2
f 142/7/3 4/15/3 3/1/3
f 5/9/5 4/15/5 142/7/5
f 6/11/6 5/9/6 143/10/6
f 11/14/8 10/19/8 4/15/8
f 12/16/9 11/14/9 5/9/9
f 9/17/10 8/25/10 2/18/10
f 13/13/11 12/16/11 6/11/11
f 10/19/12 9/17/12 3/1/12
f 19/20/13 18/27/13 12/16/13
f 10/19/14 16/29/14 15/21/14
f 17/23/16 16/29/16 10/19/16
f 12/16/17 18/27/17 17/23/17
f 9/17/18 15/21/18 14/24/18
f 24/26/19 23/33/19 17/23/19
f 15/21/145 21/30/145 20/28/145
f 19/20/21 25/32/21 24/26/21
f 16/29/22 22/37/22 21/30/22
f 23/33/24 22/37/24 16/29/24
f 23/33/26 29/38/26 28/36/26
f 24/26/27 30/43/27 29/38/27
f 21/30/28 27/40/28 26/39/28
f 31/35/29 30/43/29 24/26/29
f 22/37/30 28/36/30 27/40/30
f 27/40/31 33/44/31 32/41/31
f 37/42/32 36/48/32 30/43/32
f 28/36/33 34/51/33 33/44/33
f 35/46/35 34/51/35 28/36/35
f 30/43/36 36/48/36 35/46/36
f 42/47/37 41/53/37 35/46/37
f 39/49/38 38/61/38 32/41/38
f 43/50/39 42/47/39 36/48/39
f 34/51/40 40/55/40 39/49/40
f 41/53/42 40/55/42 34/51/42
f 46/54/43 45/60/43 39/49/43
f 47/58/45 46/54/45 40/55/45
f 48/59/46 47/58/46 41/53/46
f 45/60/47 44/63/47 38/61/47
f 43/50/48 49/57/48 48/59/48
f 51/62/146 50/72/146 44/63/146
f 55/64/50 54/67/50 48/59/50
f 46/54/51 52/66/51 51/62/51
f 47/58/53 53/69/53 52/66/53
f 54/67/54 53/69/54 47/58/54
f 59/68/55 58/73/55 52/66/55
f 60/70/56 59/68/56 53/69/56
f 57/71/57 56/82/57 50/72/57
f 55/64/58 61/75/58 60/70/58
f 58/73/59 57/71/59 51/62/59
f 58/73/61 64/79/61 63/76/61
f 59/68/63 65/80/63 64/79/63
f 60/70/64 66/83/64 65/80/64
f 57/71/65 63/76/65 62/81/65
f 61/75/66 67/78/66 66/83/66
f 72/84/67 71/90/67 65/80/67
f 69/85/68 68/92/68 62/81/68
f 67/78/69 73/88/69 72/84/69
f 70/86/70 69/85/70 63/76/70
f 65/80/72 71/90/72 70/86/72
f 77/89/73 76/94/73 70/86/73
f 72/84/74 78/97/74 77/89/74
f 75/91/75 74/103/75 68/92/75
f 79/93/76 78/97/76 72/84/76
f 76/94/77 75/91/77 69/85/77
f 79/93/79 85/100/79 84/96/79
f 82/98/80 81/105/80 75/91/80
f 83/101/82 82/98/82 76/94/82
f 84/96/83 83/101/83 77/89/83
f 75/91/84 81/105/84 80/102/84
f 90/104/85 89/113/85 83/101/85
f 81/105/86 87/107/86 86/106/86
f 85/100/87 91/109/87 90/104/87
f 82/98/88 88/110/88 87/107/88
f 83/101/90 89/113/90 88/110/90
f 89/113/92 95/115/92 94/114/92
f 90/104/93 96/117/93 95/115/93
f 93/116/94 92/124/94 86/106/94
f 91/109/95 97/112/95 96/117/95
f 88/110/96 94/114/96 93/116/96
f 104/118/97 103/122/97 96/117/97
f 101/119/98 100/127/98 93/116/98
f 102/121/100 101/119/100 94/114/100
f 103/122/101 102/121/101 95/115/101
f 93/116/102 100/127/102 99/123/102
f 109/125/103 108/131/103 102/121/103
f 106/126/104 105/174/104 99/123/104
f 110/128/105 109/125/105 103/122/105
f 107/129/106 106/126/106 100/127/106
f 108/131/108 107/129/108 101/119/108
f 108/135/110 114/139/110 113/136/110
f 109/138/111 115/143/111 114/139/111
f 112/140/112 111/149/112 105/141/112
f 110/134/113 116/133/113 115/143/113
f 107/137/114 113/136/114 112/140/114
f 116/133/115 122/147/115 121/144/115
f 113/136/116 119/154/116 118/145/116
f 120/148/118 119/154/118 113/136/118
f 121/144/119 120/148/119 114/139/119
f 118/145/120 117/152/120 111/149/120
f 127/150/121 126/157/121 120/148/121
f 118/145/122 124/155/122 123/151/122
f 128/153/123 127/150/123 121/144/123
f 119/154/124 125/161/124 124/155/124
f 126/157/126 125/161/126 119/154/126
f 132/160/128 131/168/128 125/161/128
f 127/150/129 133/163/129 132/160/129
f 124/155/130 130/164/130 129/162/130
f 128/153/131 134/159/131 133/163/131
f 125/161/132 131/168/132 130/164/132
f 136/165/133 135/172/133 129/162/133
f 140/166/134 139/171/134 133/163/134
f 137/167/135 136/165/135 130/164/135
f 138/170/137 137/167/137 131/168/137
f 133/163/138 139/171/138 138/170/138
f 139/171/139 144/5/139 143/10/139
f 141/3/140 1/2/140 135/172/140
f 145/6/141 144/5/141 139/171/141
f 142/7/142 141/3/142 136/165/142
f 143/10/144 142/7/144 137/167/144
