# Blender v2.91.2 OBJ File: 'The Keep.blend'
# www.blender.org
mtllib TheKeepUpperColumnR.mtl
o Cube.006_Cube.012
v -222.565125 428.072266 -65.819977
v -180.955566 525.739624 -29.121307
v -174.655243 428.072266 -65.819992
v -152.040924 525.739624 -29.121307
v -144.535919 527.575073 -35.347458
v -188.460693 527.575073 -35.347443
v -144.535919 528.458069 -35.347458
v -188.460693 528.458069 -35.347443
v -148.726196 528.956604 -31.575073
v -184.270386 528.956604 -31.575073
v -148.726196 531.232117 -31.575073
v -184.270386 531.232117 -31.575073
v -144.219299 531.604797 -35.685608
v -188.777344 531.604797 -35.685593
v -144.219299 532.435486 -35.685608
v -188.777344 532.435486 -35.685593
v -222.565125 428.072266 -22.278091
v -180.955566 525.739624 5.247101
v -174.655243 428.072266 -22.278107
v -152.040894 525.739624 5.247101
v -174.655243 428.072266 -44.049042
v -152.040894 525.739624 -11.937119
v -222.565125 428.072266 -44.049026
v -180.955566 525.739624 -11.937119
v -144.535889 527.575073 -11.937119
v -144.535889 527.575073 11.473312
v -188.460693 527.575073 11.473328
v -188.460693 527.575073 -11.937103
v -144.535889 528.458069 -11.937119
v -144.535889 528.458069 11.473312
v -188.460693 528.458069 11.473328
v -188.460693 528.458069 -11.937103
v -148.726166 528.956604 -11.937119
v -148.726166 528.956604 7.700897
v -184.270355 528.956604 7.700897
v -184.270355 528.956604 -11.937119
v -148.726166 531.232117 -11.937119
v -148.726166 531.232117 7.700897
v -184.270355 531.232117 7.700897
v -184.270355 531.232117 -11.937119
v -144.219269 531.604797 -11.937119
v -144.219269 531.604797 11.811432
v -188.777313 531.604797 11.811447
v -188.777313 531.604797 -11.937103
v -144.219269 532.435486 -11.937119
v -144.219269 532.435486 11.811432
v -188.777313 532.435486 11.811447
v -188.777313 532.435486 -11.937103
vt 0.606312 0.989129
vt 0.703624 0.891817
vt 0.606312 0.891817
vt 0.800936 0.989129
vt 0.703624 0.989129
vt 0.800936 0.891817
vt 0.703624 0.794505
vt 0.314377 0.989129
vt 0.217066 0.891817
vt 0.217066 0.989129
vt 0.314377 0.697194
vt 0.217066 0.794505
vt 0.314377 0.794505
vt 0.606312 0.794505
vt 0.314377 0.891817
vt 0.217066 0.599882
vt 0.217066 0.697194
vt 0.703624 0.697194
vt 0.800936 0.697194
vt 0.800936 0.794505
vt 0.703624 0.502570
vt 0.606312 0.599882
vt 0.703624 0.599882
vt 0.606312 0.697194
vt 0.800936 0.599882
vt 0.314377 0.405258
vt 0.217066 0.502570
vt 0.314377 0.502570
vt 0.800936 0.502570
vt 0.314377 0.599882
vt 0.217066 0.307947
vt 0.119754 0.210635
vt 0.119754 0.307947
vt 0.217066 0.016012
vt 0.314377 0.113323
vt 0.314377 0.016012
vt 0.022442 0.307947
vt 0.022442 0.210635
vt 0.314377 0.210635
vt 0.217066 0.210635
vt 0.314377 0.307947
vt 0.217066 0.405258
vt 0.217066 0.113323
vt 0.509001 0.891817
vt 0.509001 0.989129
vt 0.411689 0.989129
vt 0.411689 0.891817
vt 0.509001 0.794505
vt 0.411689 0.794505
vt 0.411689 0.599882
vt 0.509001 0.697194
vt 0.411689 0.697194
vt 0.509001 0.502570
vt 0.509001 0.599882
vt 0.411689 0.502570
vt 0.509001 0.405258
vt 0.411689 0.307947
vt 0.411689 0.405258
vt 0.606312 0.405258
vt 0.411689 0.210635
vt 0.411689 0.113323
vt 0.606312 0.502570
vt 0.509001 0.307947
vn 0.9742 -0.2256 -0.0000
vn -0.0000 0.3517 -0.9361
vn 0.0000 -0.9592 -0.2828
vn -0.9200 0.3919 0.0000
vn -1.0000 0.0000 0.0000
vn 0.2376 -0.9714 0.0000
vn -0.2376 -0.9714 0.0000
vn -0.1181 0.9930 0.0000
vn 1.0000 0.0000 -0.0000
vn -0.0000 0.0000 -1.0000
vn 0.1181 0.9930 0.0000
vn -0.0000 0.9914 -0.1310
vn -0.0824 -0.9966 -0.0000
vn 0.0824 -0.9966 0.0000
vn 0.0000 -0.9959 -0.0903
vn 0.0000 1.0000 -0.0000
vn 0.0000 -0.2713 0.9625
vn 0.0000 -0.9592 0.2828
vn 0.0000 0.0000 1.0000
vn 0.0000 0.9914 0.1310
vn 0.0000 -0.9959 0.0903
vn 0.0000 -1.0000 0.0000
usemtl TorchColumn
s off
f 21/1/1 4/2/1 22/3/1
f 1/4/2 4/2/2 3/5/2
f 2/6/3 5/7/3 4/2/3
f 23/8/4 2/9/4 1/10/4
f 32/11/5 6/12/5 28/13/5
f 4/2/6 25/14/6 22/3/6
f 28/13/7 2/9/7 24/15/7
f 32/11/8 10/16/8 8/17/8
f 7/18/9 25/14/9 5/7/9
f 8/19/10 5/7/10 6/20/10
f 11/21/9 33/22/9 9/23/9
f 9/23/11 29/24/11 7/18/11
f 10/25/12 7/18/12 8/19/12
f 44/26/13 12/27/13 40/28/13
f 12/29/10 9/23/10 10/25/10
f 40/28/5 10/16/5 36/30/5
f 16/31/10 13/32/10 14/33/10
f 11/34/14 41/35/14 37/36/14
f 12/37/15 13/32/15 11/38/15
f 16/31/16 45/39/16 15/40/16
f 48/41/5 14/42/5 44/26/5
f 15/40/9 41/35/9 13/43/9
f 21/1/1 20/44/1 19/45/1
f 20/44/17 17/46/17 19/45/17
f 18/47/18 26/48/18 27/49/18
f 18/47/4 23/8/4 17/46/4
f 27/49/5 32/11/5 28/13/5
f 20/44/6 25/14/6 26/48/6
f 18/47/7 28/13/7 24/15/7
f 32/11/8 35/50/8 36/30/8
f 25/14/9 30/51/9 26/48/9
f 26/48/19 31/52/19 27/49/19
f 33/22/9 38/53/9 34/54/9
f 29/24/11 34/54/11 30/51/11
f 30/51/20 35/50/20 31/52/20
f 39/55/13 44/26/13 40/28/13
f 34/54/19 39/55/19 35/50/19
f 35/50/5 40/28/5 36/30/5
f 42/56/19 47/57/19 43/58/19
f 38/53/14 41/59/14 42/56/14
f 39/55/21 42/56/21 43/58/21
f 45/39/16 47/57/16 46/60/16
f 43/58/5 48/41/5 44/26/5
f 41/35/9 46/60/9 42/61/9
f 21/1/1 3/5/1 4/2/1
f 1/4/2 2/6/2 4/2/2
f 2/6/3 6/20/3 5/7/3
f 23/8/4 24/15/4 2/9/4
f 32/11/5 8/17/5 6/12/5
f 4/2/6 5/7/6 25/14/6
f 28/13/7 6/12/7 2/9/7
f 32/11/8 36/30/8 10/16/8
f 7/18/9 29/24/9 25/14/9
f 8/19/10 7/18/10 5/7/10
f 11/21/9 37/62/9 33/22/9
f 9/23/11 33/22/11 29/24/11
f 10/25/12 9/23/12 7/18/12
f 44/26/13 14/42/13 12/27/13
f 12/29/10 11/21/10 9/23/10
f 40/28/5 12/27/5 10/16/5
f 16/31/10 15/40/10 13/32/10
f 11/34/14 13/43/14 41/35/14
f 12/37/15 14/33/15 13/32/15
f 16/31/16 48/41/16 45/39/16
f 48/41/5 16/31/5 14/42/5
f 15/40/9 45/39/9 41/35/9
f 21/1/1 22/3/1 20/44/1
f 20/44/17 18/47/17 17/46/17
f 18/47/18 20/44/18 26/48/18
f 18/47/4 24/15/4 23/8/4
f 27/49/5 31/52/5 32/11/5
f 20/44/6 22/3/6 25/14/6
f 18/47/7 27/49/7 28/13/7
f 32/11/8 31/52/8 35/50/8
f 25/14/9 29/24/9 30/51/9
f 26/48/19 30/51/19 31/52/19
f 33/22/9 37/62/9 38/53/9
f 29/24/11 33/22/11 34/54/11
f 30/51/20 34/54/20 35/50/20
f 39/55/13 43/58/13 44/26/13
f 34/54/19 38/53/19 39/55/19
f 35/50/5 39/55/5 40/28/5
f 42/56/19 46/63/19 47/57/19
f 38/53/14 37/62/14 41/59/14
f 39/55/21 38/53/21 42/56/21
f 45/39/16 48/41/16 47/57/16
f 43/58/5 47/57/5 48/41/5
f 41/35/9 45/39/9 46/60/9
f 3/5/22 21/1/22 19/45/22 17/46/22 23/8/22 1/10/22
