# Blender v2.91.2 OBJ File: 'The Keep.blend'
# www.blender.org
mtllib TheKeepRamp.mtl
o GoUpThing_Cube.008
v 34.556080 0.000031 -308.447083
v 24.889767 108.731781 -304.300507
v -65.443924 0.000031 -308.447083
v -55.777607 108.731781 -304.300507
v 27.383675 0.043781 -408.447113
v 27.383675 86.052002 -408.447113
v -58.271530 0.043781 -408.447113
v -58.271530 86.052002 -408.447113
v -65.443909 427.567566 -43.840363
v 34.556091 427.567566 -43.840363
v 34.556091 527.567566 -11.571136
v -65.443909 527.567566 -11.571136
v -65.443909 310.738464 -104.974640
v -55.777599 519.734924 -109.121216
v 24.889774 519.734924 -109.121216
v 34.556087 310.738464 -104.974640
v -65.443924 100.000031 -408.447113
v -65.443924 0.000031 -408.447113
v 34.556072 0.000031 -408.447113
v 34.556072 100.000031 -408.447113
v -58.271526 86.052002 -369.163177
v -58.271526 0.396801 -369.163177
v 27.383678 0.396801 -369.163177
v 27.383678 86.052002 -369.163177
v 34.556080 100.000031 -308.447083
v -65.443924 100.000031 -308.447083
v -65.443909 528.466675 -104.974640
v 34.556087 528.466675 -104.974640
v 24.889767 106.892792 -300.428009
v -55.777607 106.892792 -300.428009
v -55.777599 517.895935 -105.248749
v 24.889774 517.895935 -105.248749
vt 0.133773 0.269172
vt 0.061742 0.313849
vt 0.073675 0.239303
vt 0.127295 0.705199
vt 0.102111 0.835375
vt 0.063250 0.782104
vt 0.470081 0.279486
vt 0.548267 0.449965
vt 0.470081 0.449965
vt 0.224967 0.801539
vt 0.319578 0.780244
vt 0.282920 0.838197
vt 0.156803 0.804460
vt 0.248719 0.274552
vt 0.319578 0.319034
vt 0.318024 0.412531
vt 0.253744 0.167183
vt 0.240783 0.282566
vt 0.238373 0.696320
vt 0.234986 0.288647
vt 0.255401 0.711879
vt 0.062805 0.408578
vt 0.631398 0.689263
vt 0.385003 0.675036
vt 0.669927 0.668169
vt 0.383520 0.909630
vt 0.385287 0.697333
vt 0.669927 0.942490
vt 0.631262 0.920831
vt 0.382911 0.932117
vt 0.718746 0.279486
vt 0.718746 0.449965
vt 0.548267 0.620444
vt 0.470081 0.621146
vt 0.548267 0.109007
vt 0.548267 0.279486
vt 0.796936 0.449965
vt 0.796936 0.279486
vt 0.247036 0.701985
vt 0.136772 0.696281
vt 0.141892 0.279233
vt 0.143001 0.689671
vt 0.150029 0.284258
vt 0.308197 0.245390
vt 0.138798 0.161803
vt 0.470081 0.108304
vn -1.0000 -0.0000 0.0000
vn 0.0000 -1.0000 -0.0000
vn 1.0000 0.0000 -0.0000
vn 0.0000 1.0000 0.0000
vn 0.0000 1.0000 0.0096
vn 0.0000 0.0000 -1.0000
vn 0.0000 1.0000 -0.0090
vn 0.0000 0.4290 -0.9033
vn 0.0000 0.9033 0.4290
vn 0.0000 -0.9033 -0.4290
usemtl GoUpThing
s off
f 27/1/1 9/2/1 12/3/1
f 26/4/1 18/5/1 3/6/1
f 6/7/2 21/8/2 8/9/2
f 20/10/3 1/11/3 19/12/3
f 26/4/4 20/10/4 17/13/4
f 28/14/3 10/15/3 16/16/3
f 27/1/5 11/17/5 28/14/5
f 15/18/1 29/19/1 32/20/1
f 25/21/3 16/16/3 1/11/3
f 26/4/1 13/22/1 27/1/1
f 8/23/6 18/24/6 17/25/6
f 5/26/6 18/24/6 7/27/6
f 8/23/6 20/28/6 6/29/6
f 6/29/6 19/30/6 5/26/6
f 21/8/6 23/31/6 22/32/6
f 8/9/3 22/33/3 7/34/3
f 6/7/1 23/35/1 24/36/1
f 7/37/7 23/31/7 5/38/7
f 2/39/8 26/4/8 4/40/8
f 4/40/8 27/1/8 14/41/8
f 2/39/8 28/14/8 25/21/8
f 14/41/8 28/14/8 15/18/8
f 30/42/8 32/20/8 29/19/8
f 4/40/9 29/19/9 2/39/9
f 15/18/10 31/43/10 14/41/10
f 4/40/3 31/43/3 30/42/3
f 27/1/1 13/22/1 9/2/1
f 26/4/1 17/13/1 18/5/1
f 6/7/2 24/36/2 21/8/2
f 20/10/3 25/21/3 1/11/3
f 26/4/4 25/21/4 20/10/4
f 28/14/3 11/44/3 10/15/3
f 27/1/5 12/45/5 11/17/5
f 15/18/1 2/39/1 29/19/1
f 25/21/3 28/14/3 16/16/3
f 26/4/1 3/6/1 13/22/1
f 8/23/6 7/27/6 18/24/6
f 5/26/6 19/30/6 18/24/6
f 8/23/6 17/25/6 20/28/6
f 6/29/6 20/28/6 19/30/6
f 21/8/6 24/36/6 23/31/6
f 8/9/3 21/8/3 22/33/3
f 6/7/1 5/46/1 23/35/1
f 7/37/7 22/32/7 23/31/7
f 2/39/8 25/21/8 26/4/8
f 4/40/8 26/4/8 27/1/8
f 2/39/8 15/18/8 28/14/8
f 14/41/8 27/1/8 28/14/8
f 30/42/8 31/43/8 32/20/8
f 4/40/9 30/42/9 29/19/9
f 15/18/10 32/20/10 31/43/10
f 4/40/3 14/41/3 31/43/3
